<svg width="86" height="87" viewBox="0 0 86 87" fill="none" xmlns="http://www.w3.org/2000/svg">
<path d="M59.3 12.0446L57.6596 82.9992L6.00003 58.91L59.3 12.0446Z" fill="url(#paint0_linear_609_2)"/>
<g filter="url(#filter0_f_609_2)">
<path d="M6.00003 58.91L59.3 12.0446L26.8451 68.6302L6.00003 58.91Z" fill="#222222" fill-opacity="0.25"/>
</g>
<g filter="url(#filter1_f_609_2)">
<path d="M57.6596 82.9992L59.3 12.0446L44.065 76.66L57.6596 82.9992Z" fill="#3E3E3E" fill-opacity="0.15"/>
</g>
<g filter="url(#filter2_f_609_2)">
<path d="M59.2999 12.0446L42.7054 76.026L27.7514 69.0528L59.2999 12.0446Z" fill="url(#paint1_linear_609_2)" fill-opacity="0.25"/>
</g>
<path d="M57.6596 82.9992C56.6093 85.2517 44.4048 81.2319 30.1394 74.5799C15.874 67.9278 4.94974 61.1624 6.00007 58.91C7.05039 56.6576 19.6775 59.771 33.9429 66.4231C48.2083 73.0751 58.7099 80.7468 57.6596 82.9992Z" fill="url(#paint2_linear_609_2)"/>
<defs>
<filter id="filter0_f_609_2" x="0" y="6.04462" width="65.2999" height="68.5856" filterUnits="userSpaceOnUse" color-interpolation-filters="sRGB">
<feFlood flood-opacity="0" result="BackgroundImageFix"/>
<feBlend mode="normal" in="SourceGraphic" in2="BackgroundImageFix" result="shape"/>
<feGaussianBlur stdDeviation="3" result="effect1_foregroundBlur_609_2"/>
</filter>
<filter id="filter1_f_609_2" x="40.0649" y="8.04462" width="23.2351" height="78.9546" filterUnits="userSpaceOnUse" color-interpolation-filters="sRGB">
<feFlood flood-opacity="0" result="BackgroundImageFix"/>
<feBlend mode="normal" in="SourceGraphic" in2="BackgroundImageFix" result="shape"/>
<feGaussianBlur stdDeviation="2" result="effect1_foregroundBlur_609_2"/>
</filter>
<filter id="filter2_f_609_2" x="23.7513" y="8.04462" width="39.5486" height="71.9814" filterUnits="userSpaceOnUse" color-interpolation-filters="sRGB">
<feFlood flood-opacity="0" result="BackgroundImageFix"/>
<feBlend mode="normal" in="SourceGraphic" in2="BackgroundImageFix" result="shape"/>
<feGaussianBlur stdDeviation="2" result="effect1_foregroundBlur_609_2"/>
</filter>
<linearGradient id="paint0_linear_609_2" x1="59.3" y1="12.0446" x2="33.3395" y2="68.9002" gradientUnits="userSpaceOnUse">
<stop stop-color="white"/>
<stop offset="1" stop-color="#747474"/>
</linearGradient>
<linearGradient id="paint1_linear_609_2" x1="59.7531" y1="12.2559" x2="43.4285" y2="69.743" gradientUnits="userSpaceOnUse">
<stop stop-color="white"/>
<stop offset="1" stop-color="white" stop-opacity="0.52"/>
</linearGradient>
<linearGradient id="paint2_linear_609_2" x1="30.8096" y1="65" x2="27.3096" y2="74.5" gradientUnits="userSpaceOnUse">
<stop stop-color="#434242"/>
<stop offset="0.443024" stop-color="#252525"/>
<stop offset="1"/>
</linearGradient>
</defs>
</svg>
